<?xml version="1.0" standalone="no"?>
<!DOCTYPE svg PUBLIC "-//W3C//DTD SVG 20010904//EN"
 "http://www.w3.org/TR/2001/REC-SVG-20010904/DTD/svg10.dtd">
<svg version="1.0" xmlns="http://www.w3.org/2000/svg"
 width="500.000000pt" height="500.000000pt" viewBox="0 0 500.000000 500.000000"
 preserveAspectRatio="xMidYMid meet">
<metadata>
Created by potrace 1.14, written by Peter Selinger 2001-2017
</metadata>
<g transform="translate(0.000000,500.000000) scale(0.100000,-0.100000)"
fill="#000000" stroke="none">
<path d="M1065 4524 c-260 -41 -492 -248 -571 -509 -14 -45 -18 -93 -18 -190
0 -116 3 -139 27 -210 15 -44 50 -117 77 -162 l50 -82 0 -388 c0 -440 -1 -431
81 -474 75 -38 107 -27 296 99 l166 110 146 -97 c191 -128 204 -134 259 -128
48 5 84 27 116 71 20 26 21 41 24 428 l3 400 23 32 c76 101 126 259 126 398
l0 88 975 0 c536 0 975 -3 975 -6 0 -4 -15 -36 -32 -73 l-33 -66 -5 -1485 c-5
-1420 -6 -1487 -24 -1522 -45 -91 -158 -149 -251 -128 -83 19 -132 56 -171
130 -17 31 -19 64 -22 263 l-3 227 -1015 0 -1014 0 0 545 0 545 -75 0 -75 0 0
-545 0 -545 -316 0 -316 0 4 -243 3 -242 32 -67 c40 -85 106 -151 191 -191
l67 -32 1425 0 1425 0 66 32 c120 59 202 173 219 306 5 41 10 584 10 1270 l0
1197 311 0 311 0 -4 243 -3 243 -38 76 c-43 87 -98 142 -186 185 l-56 28
-1205 3 -1206 2 -27 63 c-76 173 -243 318 -432 377 -69 21 -242 34 -310 24z
m255 -171 c229 -62 399 -288 400 -529 0 -67 -33 -193 -67 -257 -36 -67 -153
-184 -220 -220 -64 -34 -190 -67 -257 -67 -140 1 -290 64 -391 165 -106 106
-158 235 -157 389 1 148 47 260 150 368 144 151 341 206 542 151z m2930 -476
c58 -30 105 -92 119 -157 6 -28 11 -103 11 -165 l0 -115 -235 0 -235 0 0 144
c0 164 8 194 70 256 71 71 175 85 270 37z m-3381 -680 c108 -53 198 -70 339
-65 124 5 216 30 310 85 l42 25 0 -297 c0 -234 -3 -295 -12 -289 -7 4 -80 53
-163 108 -137 91 -155 100 -205 104 l-56 4 -167 -111 c-92 -61 -170 -111 -172
-111 -3 0 -5 133 -5 296 0 163 3 294 8 292 4 -2 40 -20 81 -41z m2263 -2274
c3 -179 1 -167 66 -295 6 -13 -2329 -10 -2388 3 -66 14 -127 62 -159 124 -23
44 -26 63 -30 192 l-3 143 1255 0 1256 0 3 -167z"/>
<path d="M2190 3205 l0 -75 700 0 700 0 0 75 0 75 -700 0 -700 0 0 -75z"/>
<path d="M2190 2890 l0 -80 545 0 545 0 0 80 0 80 -545 0 -545 0 0 -80z"/>
<path d="M2190 2575 l0 -75 390 0 390 0 0 75 0 75 -390 0 -390 0 0 -75z"/>
<path d="M3134 2179 c-68 -16 -145 -69 -186 -127 -109 -157 -54 -369 118 -453
153 -76 321 -22 412 131 24 41 27 55 27 145 0 90 -3 104 -27 145 -74 125 -214
190 -344 159z m154 -176 c49 -37 67 -71 67 -128 0 -58 -18 -91 -69 -129 -40
-30 -130 -29 -172 1 -91 65 -81 216 18 267 42 21 120 16 156 -11z"/>
<path d="M1410 1875 l0 -155 75 0 75 0 0 155 0 155 -75 0 -75 0 0 -155z"/>
<path d="M1720 1875 l0 -155 75 0 75 0 0 155 0 155 -75 0 -75 0 0 -155z"/>
<path d="M2030 1875 l0 -155 80 0 80 0 0 155 0 155 -80 0 -80 0 0 -155z"/>
<path d="M2340 1875 l0 -155 80 0 80 0 0 155 0 155 -80 0 -80 0 0 -155z"/>
</g>
</svg>
