<?xml version="1.0" encoding="iso-8859-1"?>
<!-- Generator: Adobe Illustrator 20.1.0, SVG Export Plug-In . SVG Version: 6.00 Build 0)  -->
<svg xmlns="http://www.w3.org/2000/svg" xmlns:xlink="http://www.w3.org/1999/xlink" version="1.1" id="&#1057;&#1083;&#1086;&#1081;_1" x="0px" y="0px" viewBox="0 0 64 64" style="enable-background:new 0 0 64 64;" xml:space="preserve">
<linearGradient id="SVGID_1__44794" gradientUnits="userSpaceOnUse" x1="32" y1="5.25" x2="32" y2="59.3086" spreadMethod="reflect">
	<stop offset="0" style="stop-color:#1A6DFF"/>
	<stop offset="1" style="stop-color:#C822FF"/>
</linearGradient>
<path style="fill:url(#SVGID_1__44794);" d="M53,12H23.475C22.236,8.51,18.91,6,15,6c-4.963,0-9,4.037-9,9c0,2.137,0.752,4.099,2,5.645  v9.491c0,0.738,0.404,1.413,1.056,1.762c0.296,0.158,0.62,0.236,0.942,0.236c0.388,0,0.773-0.112,1.108-0.336l3.895-2.596  l3.893,2.596c0.613,0.41,1.4,0.448,2.051,0.1C21.596,31.549,22,30.874,22,30.136v-9.491c1.248-1.545,2-3.508,2-5.645  c0-0.338-0.022-0.671-0.059-1h25.085C48.391,14.838,48,15.87,48,17v36c0,1.654-1.346,3-3,3s-3-1.346-3-3v-5H16V34h-2v14H6v5  c0,2.757,2.243,5,5,5h34c2.757,0,5-2.243,5-5V22h8v-5C58,14.243,55.757,12,53,12z M16.108,27.537  c-0.672-0.447-1.543-0.447-2.219,0.001L10,30.136v-7.657C11.431,23.438,13.151,24,15,24c1.849,0,3.569-0.562,5.001-1.522  l0.002,7.656L16.108,27.537z M15,22c-3.859,0-7-3.141-7-7s3.141-7,7-7s7,3.141,7,7S18.859,22,15,22z M11,56c-1.654,0-3-1.346-3-3v-3  h32v3c0,1.125,0.373,2.164,1.002,3H11z M56,20h-6v-3c0-1.654,1.346-3,3-3s3,1.346,3,3V20z"/>
<linearGradient id="SVGID_2__44794" gradientUnits="userSpaceOnUse" x1="37" y1="5.25" x2="37" y2="59.3086" spreadMethod="reflect">
	<stop offset="0" style="stop-color:#1A6DFF"/>
	<stop offset="1" style="stop-color:#C822FF"/>
</linearGradient>
<rect x="28" y="22" style="fill:url(#SVGID_2__44794);" width="18" height="2"/>
<linearGradient id="SVGID_3__44794" gradientUnits="userSpaceOnUse" x1="35" y1="5.25" x2="35" y2="59.3086" spreadMethod="reflect">
	<stop offset="0" style="stop-color:#1A6DFF"/>
	<stop offset="1" style="stop-color:#C822FF"/>
</linearGradient>
<rect x="28" y="26" style="fill:url(#SVGID_3__44794);" width="14" height="2"/>
<linearGradient id="SVGID_4__44794" gradientUnits="userSpaceOnUse" x1="33" y1="5.25" x2="33" y2="59.3086" spreadMethod="reflect">
	<stop offset="0" style="stop-color:#1A6DFF"/>
	<stop offset="1" style="stop-color:#C822FF"/>
</linearGradient>
<rect x="28" y="30" style="fill:url(#SVGID_4__44794);" width="10" height="2"/>
<linearGradient id="SVGID_5__44794" gradientUnits="userSpaceOnUse" x1="41" y1="5.25" x2="41" y2="59.3086" spreadMethod="reflect">
	<stop offset="0" style="stop-color:#1A6DFF"/>
	<stop offset="1" style="stop-color:#C822FF"/>
</linearGradient>
<path style="fill:url(#SVGID_5__44794);" d="M37,40c0,2.206,1.794,4,4,4s4-1.794,4-4s-1.794-4-4-4S37,37.794,37,40z M43,40  c0,1.103-0.897,2-2,2s-2-0.897-2-2s0.897-2,2-2S43,38.897,43,40z"/>
<linearGradient id="SVGID_6__44794" gradientUnits="userSpaceOnUse" x1="31" y1="5.25" x2="31" y2="59.3086" spreadMethod="reflect">
	<stop offset="0" style="stop-color:#1A6DFF"/>
	<stop offset="1" style="stop-color:#C822FF"/>
</linearGradient>
<rect x="30" y="38" style="fill:url(#SVGID_6__44794);" width="2" height="4"/>
<linearGradient id="SVGID_7__44794" gradientUnits="userSpaceOnUse" x1="27" y1="5.25" x2="27" y2="59.3086" spreadMethod="reflect">
	<stop offset="0" style="stop-color:#1A6DFF"/>
	<stop offset="1" style="stop-color:#C822FF"/>
</linearGradient>
<rect x="26" y="38" style="fill:url(#SVGID_7__44794);" width="2" height="4"/>
<linearGradient id="SVGID_8__44794" gradientUnits="userSpaceOnUse" x1="23" y1="5.25" x2="23" y2="59.3086" spreadMethod="reflect">
	<stop offset="0" style="stop-color:#1A6DFF"/>
	<stop offset="1" style="stop-color:#C822FF"/>
</linearGradient>
<rect x="22" y="38" style="fill:url(#SVGID_8__44794);" width="2" height="4"/>
<linearGradient id="SVGID_9__44794" gradientUnits="userSpaceOnUse" x1="19" y1="5.25" x2="19" y2="59.3086" spreadMethod="reflect">
	<stop offset="0" style="stop-color:#1A6DFF"/>
	<stop offset="1" style="stop-color:#C822FF"/>
</linearGradient>
<rect x="18" y="38" style="fill:url(#SVGID_9__44794);" width="2" height="4"/>
<linearGradient id="SVGID_10__44794" gradientUnits="userSpaceOnUse" x1="15" y1="9.75" x2="15" y2="20.3757" spreadMethod="reflect">
	<stop offset="0" style="stop-color:#6DC7FF"/>
	<stop offset="1" style="stop-color:#E6ABFF"/>
</linearGradient>
<circle style="fill:url(#SVGID_10__44794);" cx="15" cy="15" r="5"/>
</svg>
